<svg width="420" height="570" viewBox="0 0 420 570" fill="none" xmlns="http://www.w3.org/2000/svg">
<rect width="420" height="570" rx="4" fill="#F4F4FF"/>
<rect x="0.5" y="0.5" width="419" height="569" rx="3.5" stroke="#090937" stroke-opacity="0.1"/>
<path d="M172.516 225.59C162.917 227.71 155.153 235.954 153.169 246.109C152.722 248.386 152.697 250.27 152.697 285C152.697 319.73 152.722 321.614 153.169 323.891C155.103 333.758 162.098 341.453 171.673 344.227L173.657 344.803H209.5H245.343L247.451 344.201C255.736 341.819 262.26 335.407 264.988 327.006C266.278 322.975 266.303 322.635 266.303 296.856C266.303 273.589 266.278 272.909 265.807 271.94C264.368 268.93 260.474 268.983 258.886 272.045C258.539 272.752 258.464 274.714 258.365 289.973L258.241 307.089L247.302 293.872C241.3 286.623 235.768 280.106 235.049 279.425C233.585 278.038 230.931 276.599 228.848 276.075C227.111 275.63 223.663 275.63 221.902 276.075C219.918 276.573 217.09 278.091 215.676 279.452C214.982 280.106 211.038 284.738 206.871 289.737C202.704 294.762 199.256 298.871 199.231 298.871C199.181 298.871 198.015 297.405 196.626 295.6C193.451 291.543 191.69 289.816 189.631 288.743C187.201 287.46 185.018 287.015 182.215 287.172C179.263 287.355 177.304 288.062 174.873 289.763C173.236 290.915 172.293 291.988 166.886 298.871L160.759 306.67L160.684 277.986C160.61 245.768 160.511 247.574 162.446 243.387C163.264 241.581 163.884 240.717 165.72 238.807C167.53 236.87 168.349 236.242 170.061 235.352C173.955 233.363 172.739 233.441 197.867 233.441C211.832 233.441 220.612 233.337 221.133 233.18C222.299 232.839 223.589 231.452 223.912 230.248C224.358 228.469 223.44 226.296 221.902 225.459C221.282 225.119 218.008 225.066 197.916 225.093C176.435 225.093 174.476 225.145 172.516 225.59ZM228.228 284.686C229.592 285.419 230.063 285.968 244.351 303.189C251.296 311.538 257.224 318.683 257.571 319.076L258.167 319.756L257.77 321.955C257.497 323.342 256.951 325.017 256.207 326.587C255.289 328.629 254.719 329.44 253.057 331.167C250.825 333.523 249.138 334.674 246.409 335.721L244.599 336.428H209.5C171.524 336.428 174.029 336.506 170.954 335.119C168.002 333.784 164.827 330.827 163.041 327.765C162.073 326.09 161.032 323.002 160.784 321.117L160.635 319.939L166.737 312.088C179.04 296.28 178.395 297.065 179.933 296.306C181.917 295.364 183.877 295.364 185.812 296.359C187.077 297.039 187.672 297.667 191.665 302.771C194.196 305.99 196.502 308.686 197.048 309.026C198.214 309.785 199.925 309.706 201.116 308.816C201.562 308.476 206.077 303.216 211.112 297.091C216.172 290.993 220.637 285.707 221.059 285.366C221.481 285.026 222.25 284.555 222.795 284.346C224.16 283.796 226.938 283.979 228.228 284.686Z" fill="#CDCDD4"/>
<path d="M244.45 225.668C243.978 225.982 243.358 226.768 243.06 227.422C242.515 228.521 242.49 228.861 242.49 235.195V241.816H235.942C229.592 241.816 229.393 241.843 228.575 242.418C227.359 243.256 226.516 245.166 226.739 246.553C226.962 247.941 228.327 249.563 229.542 249.93C230.063 250.061 233.163 250.191 236.487 250.191H242.49V256.525C242.49 260.032 242.614 263.303 242.738 263.853C243.085 265.136 244.623 266.575 245.938 266.811C247.252 267.046 249.063 266.156 249.857 264.874C250.403 264.01 250.427 263.801 250.427 257.101V250.191H256.703C262.706 250.191 263.028 250.165 264.07 249.589C264.69 249.275 265.434 248.621 265.732 248.124C266.799 246.423 266.302 243.727 264.715 242.523C263.971 241.973 263.673 241.947 257.249 241.816L250.552 241.686L250.427 234.619C250.303 227.841 250.279 227.527 249.758 226.741C248.617 225.066 246.062 224.543 244.45 225.668Z" fill="#CDCDD4"/>
<path d="M179.536 242.183C174.401 243.518 169.887 248.386 168.845 253.803C167.853 258.854 169.217 263.853 172.566 267.596C175.22 270.527 178.246 272.045 182.116 272.359C190.698 273.039 198.164 265.162 197.519 256.106C197.42 254.929 197.197 253.411 196.999 252.73C195.485 247.627 191.417 243.518 186.556 242.209C184.795 241.738 181.372 241.738 179.536 242.183ZM185.836 250.82C187.97 251.866 189.656 254.562 189.656 256.918C189.656 260.555 187.052 263.618 183.629 263.984C178.693 264.507 174.997 258.985 177.105 254.248C177.75 252.756 179.561 250.924 180.776 250.532C182.289 250.008 184.447 250.139 185.836 250.82Z" fill="#CDCDD4"/>
</svg>
