<?xml version="1.0" standalone="no"?>
<!DOCTYPE svg PUBLIC "-//W3C//DTD SVG 20010904//EN"
 "http://www.w3.org/TR/2001/REC-SVG-20010904/DTD/svg10.dtd">
<svg version="1.0" xmlns="http://www.w3.org/2000/svg"
 width="512.000000pt" height="512.000000pt" viewBox="0 0 512.000000 512.000000"
 preserveAspectRatio="xMidYMid meet">

<g transform="translate(0.000000,512.000000) scale(0.100000,-0.100000)"
fill="#000000" stroke="none">
<path d="M539 4631 l-24 -19 -3 -2156 c-2 -2369 -7 -2189 56 -2215 20 -8 534
-11 1897 -8 1773 2 1873 3 1930 21 176 53 333 179 412 331 71 138 75 163 80
493 3 169 9 292 14 292 13 0 5 2155 -9 2455 -11 258 -25 333 -78 441 -82 167
-220 285 -414 355 l-65 24 -1886 3 c-1850 2 -1887 2 -1910 -17z m741 -376 l0
-225 95 0 95 0 0 225 0 225 1403 0 c1534 0 1459 3 1571 -58 70 -38 145 -110
186 -178 40 -66 79 -175 80 -218 l0 -30 -32 31 c-53 50 -153 109 -236 140
l-77 28 -1277 3 -1278 2 0 -85 0 -85 1228 0 c1336 0 1285 2 1391 -56 71 -38
140 -102 183 -168 42 -65 78 -168 78 -223 l0 -35 -52 46 c-65 57 -191 120
-279 141 -58 13 -296 15 -1860 17 l-1794 3 -3 363 -2 362 290 0 290 0 0 -225z
m7 -712 c13 -38 46 -63 83 -63 43 0 76 21 84 55 l6 25 1419 0 c1387 0 1420 0
1483 -20 126 -39 239 -134 299 -252 l29 -57 0 -931 c0 -613 3 -930 10 -930 6
0 10 -93 10 -258 0 -281 -7 -330 -58 -426 -36 -69 -137 -167 -204 -200 -120
-59 -40 -56 -1578 -56 l-1415 0 -15 33 c-29 61 -106 61 -145 0 l-20 -32 -282
-1 -283 0 0 1565 0 1565 285 0 c263 0 286 -1 292 -17z"/>
<path d="M1334 3275 c-16 -7 -35 -24 -42 -39 -18 -39 -16 -229 3 -265 27 -52
102 -63 140 -21 28 31 20 281 -10 318 -11 13 -66 18 -91 7z"/>
<path d="M2845 3076 c-139 -44 -243 -147 -285 -285 -18 -56 -20 -92 -20 -327
0 -240 2 -270 20 -325 25 -72 57 -125 113 -186 l41 -45 -19 -36 c-32 -60 -88
-82 -210 -82 -174 0 -275 -39 -385 -150 -127 -127 -128 -180 -7 -302 263 -266
632 -418 1010 -418 366 0 682 134 955 406 135 134 136 140 66 246 -94 142
-246 218 -434 218 -107 0 -152 13 -184 51 -37 44 -33 71 19 126 54 56 99 142
115 218 8 36 10 145 8 313 -3 240 -5 261 -27 314 -48 123 -151 222 -268 258
-57 17 -92 20 -267 19 -132 0 -215 -5 -241 -13z m450 -175 c22 -10 54 -34 72
-52 60 -64 63 -81 63 -371 0 -310 -2 -317 -103 -410 l-62 -58 2 -74 c2 -99 37
-178 105 -242 76 -71 120 -86 278 -94 141 -7 167 -14 238 -67 17 -13 32 -30
32 -38 0 -17 -105 -113 -195 -177 -97 -70 -255 -144 -372 -174 -131 -34 -346
-44 -478 -21 -229 40 -435 144 -616 310 -60 55 -62 58 -45 76 9 10 45 34 79
52 59 31 69 33 197 39 116 5 143 10 191 32 118 54 189 162 197 300 l4 76 -62
59 c-105 99 -104 95 -108 401 -3 260 -3 263 21 316 26 56 75 103 129 123 21 7
101 12 213 12 155 0 186 -2 220 -18z"/>
<path d="M1305 2705 c-24 -23 -25 -30 -25 -150 0 -126 0 -127 29 -156 39 -38
91 -40 127 -4 15 15 23 32 20 41 -3 9 -6 67 -6 130 0 109 -1 116 -25 139 -33
34 -87 34 -120 0z"/>
<path d="M1328 2184 c-42 -22 -48 -43 -48 -169 0 -129 13 -174 55 -193 31 -14
79 -5 101 19 14 16 17 39 15 159 -1 78 -5 148 -8 156 -6 16 -54 44 -75 44 -7
-1 -25 -7 -40 -16z"/>
<path d="M1309 1591 c-29 -29 -29 -30 -29 -151 l0 -122 30 -30 c27 -27 36 -30
73 -25 45 6 82 39 72 64 -3 8 -5 66 -5 129 0 109 -1 116 -25 139 -34 35 -78
33 -116 -4z"/>
<path d="M1329 1059 c-40 -15 -49 -48 -49 -175 0 -87 4 -120 16 -139 29 -45
105 -53 140 -14 15 16 17 38 15 151 -1 72 -6 139 -11 149 -5 9 -24 22 -41 28
-37 13 -35 13 -70 0z"/>
</g>
</svg>
