<?xml version="1.0" standalone="no"?>
<!DOCTYPE svg PUBLIC "-//W3C//DTD SVG 20010904//EN"
 "http://www.w3.org/TR/2001/REC-SVG-20010904/DTD/svg10.dtd">
<svg version="1.0" xmlns="http://www.w3.org/2000/svg"
 width="512.000000pt" height="512.000000pt" viewBox="0 0 512.000000 512.000000"
 preserveAspectRatio="xMidYMid meet">

<g transform="translate(0.000000,512.000000) scale(0.100000,-0.100000)"
fill="#000000" stroke="none">
<path d="M2379 4655 c-629 -119 -986 -785 -739 -1378 92 -222 305 -435 527
-527 144 -60 221 -74 398 -74 176 1 243 14 388 74 221 92 426 295 523 520 64
148 77 215 77 400 0 137 -3 178 -21 242 -51 186 -135 332 -267 463 -132 133
-281 218 -463 266 -102 27 -317 34 -423 14z m386 -210 c223 -62 415 -222 514
-428 62 -128 75 -191 75 -347 0 -156 -13 -219 -74 -346 -100 -208 -294 -368
-520 -431 -91 -24 -309 -24 -400 0 -227 63 -429 231 -524 437 -48 106 -66 179
-73 300 -21 392 244 737 632 824 88 20 283 15 370 -9z"/>
<path d="M3115 2515 c-333 -166 -767 -168 -1103 -5 -46 22 -89 40 -97 40 -7 0
-64 -23 -126 -50 -481 -215 -844 -522 -1079 -913 -171 -286 -270 -663 -270
-1032 l0 -125 1145 0 c1233 0 1187 -2 1215 49 20 39 12 91 -19 122 l-29 29
-1057 0 -1057 0 6 78 c60 695 451 1234 1135 1565 117 57 126 60 155 47 79 -32
258 -90 326 -105 45 -10 144 -19 250 -22 252 -8 390 18 661 123 l46 18 89 -38
c107 -46 173 -82 278 -153 95 -64 132 -69 177 -24 38 38 40 96 6 133 -24 26
-139 105 -217 150 -45 26 -225 105 -310 137 l-45 16 -80 -40z"/>
<path d="M4149 2040 c-25 -4 -65 -18 -90 -30 -61 -30 -953 -919 -980 -975 -17
-36 -19 -68 -19 -322 l0 -283 271 0 c177 0 286 4 313 12 35 10 108 78 494 462
250 248 466 469 481 491 38 55 55 109 54 181 -1 97 -27 140 -166 282 -129 131
-178 166 -242 177 -22 4 -47 8 -55 10 -8 1 -36 -1 -61 -5z m208 -312 c110
-110 131 -146 113 -194 -6 -16 -203 -221 -448 -466 l-437 -438 -162 0 -163 0
0 164 0 164 446 441 c248 244 456 441 468 443 47 8 83 -14 183 -114z"/>
</g>
</svg>
