<svg width="22" height="20" viewBox="0 0 22 20" fill="none" xmlns="http://www.w3.org/2000/svg">
<path d="M18.8143 3.27134L18.8149 3.27193C19.3181 3.76064 19.7202 4.34179 19.9991 4.98273C20.288 5.64963 20.4349 6.35521 20.4328 7.08208V7.08422C20.4328 7.76511 20.2928 8.49112 20.0014 9.24773L20.0008 9.24944C19.7594 9.88082 19.402 10.5509 18.9363 11.2412C18.1994 12.332 17.1724 13.4892 15.8751 14.6785C13.7187 16.6538 11.5834 18.0186 11.5057 18.0681L11.5055 18.0681L10.9449 18.4252C10.9448 18.4253 10.9448 18.4253 10.9448 18.4253C10.9435 18.4261 10.941 18.4271 10.9371 18.4271C10.9332 18.4271 10.9307 18.4261 10.9295 18.4253C10.9294 18.4253 10.9294 18.4253 10.9294 18.4252L10.3687 18.0681L10.3687 18.068L10.3569 18.0608C10.3572 18.061 10.357 18.0609 10.3562 18.0604C10.3537 18.0588 10.345 18.0533 10.3287 18.0429C10.3092 18.0304 10.2819 18.0128 10.2472 17.9901C10.1778 17.9449 10.0799 17.8801 9.95738 17.7973C9.71237 17.6317 9.37002 17.3943 8.96239 17.0963C8.14599 16.4995 7.07371 15.664 5.99916 14.6786L5.99908 14.6785C4.70167 13.4891 3.67457 12.3317 2.9377 11.2408C2.47301 10.552 2.11717 9.88123 1.87266 9.24736C1.58136 8.49088 1.44141 7.765 1.44141 7.08422C1.44141 6.35579 1.5886 5.6494 1.87765 4.98242C2.15551 4.34142 2.55748 3.76044 3.06104 3.27256L3.06207 3.27157C3.5698 2.77777 4.16035 2.39024 4.81679 2.12037L4.8176 2.12003C5.49649 1.84001 6.21517 1.69856 6.96051 1.69856C7.99377 1.69856 9.00016 1.97947 9.87369 2.50863L9.87371 2.50864C10.0827 2.63523 10.2807 2.77391 10.4678 2.92467L10.9383 3.30359L11.4087 2.92467C11.5959 2.77391 11.7939 2.63523 12.0029 2.50864L12.0029 2.50863C12.8764 1.97947 13.8828 1.69856 14.9161 1.69857L14.9178 1.69856C15.6527 1.69688 16.3806 1.84019 17.059 2.12003L17.0599 2.12043C17.7139 2.3891 18.3094 2.7799 18.8143 3.27134ZM11.6144 1.86734L11.6145 1.86753L11.6144 1.86734Z" stroke="#6251DD" stroke-width="1.5"/>
</svg>
