<svg width="32" height="32" viewBox="0 0 32 32" fill="none" xmlns="http://www.w3.org/2000/svg">
<path d="M22.8128 2.44998C20.9316 2.59373 19.1253 3.56248 17.9128 5.06873C17.4003 5.71873 16.8691 6.76248 16.6441 7.57498L16.4753 8.18748H9.93158C3.66908 8.18748 3.36908 8.19373 3.00658 8.30623C2.38158 8.49998 1.96908 8.86873 1.66283 9.49998L1.46908 9.90623L1.45033 16.7125C1.43158 24.2937 1.41908 23.9687 1.85658 24.6187C2.11908 24.9937 2.58783 25.3375 3.03158 25.475C3.23783 25.5312 3.63158 25.5625 4.26908 25.5625C5.31908 25.5625 5.53783 25.625 5.74408 25.9625C5.80658 26.0687 6.10658 26.7312 6.40658 27.4375C6.73158 28.2 7.03783 28.825 7.16283 28.9812C7.62533 29.55 8.53783 29.7562 9.20658 29.4375C9.40658 29.3437 10.1253 28.725 11.3941 27.5437C12.4316 26.5812 13.3691 25.7375 13.4691 25.675C13.6441 25.5687 13.8941 25.5625 17.8191 25.5625C21.8253 25.5625 22.0003 25.5562 22.3941 25.4375C22.7066 25.3437 22.8941 25.2312 23.1566 24.9875C23.7941 24.4062 23.9378 23.925 23.9378 22.4V21.45L24.2691 21.3437C24.7441 21.1937 25.0566 20.9937 25.4191 20.6125C25.9191 20.075 26.1878 19.4187 26.1878 18.7062V18.375H26.6878C27.1066 18.375 27.2066 18.3562 27.3128 18.25C27.4816 18.0812 27.4691 17.8375 27.2816 17.6562C27.1503 17.5187 27.0753 17.5 26.6816 17.5H26.2316L26.2691 17.2625C26.3691 16.5375 26.8753 15.7187 27.5566 15.1625C28.7066 14.2375 29.2941 13.5312 29.8128 12.4812C30.9941 10.075 30.7191 7.31873 29.0941 5.18748C28.7441 4.73123 27.9253 3.95623 27.4628 3.64373C26.0878 2.71248 24.5441 2.31248 22.8128 2.44998ZM25.0941 3.49373C26.1566 3.77498 27.4503 4.58123 28.1378 5.38748C28.2941 5.56873 28.5503 5.92498 28.7128 6.17498C29.6753 7.66248 29.9253 9.51873 29.3941 11.2187C28.9941 12.4875 28.2941 13.4375 26.9816 14.5062C26.7878 14.6687 26.5003 14.95 26.3378 15.1312C25.9691 15.5625 25.5316 16.4687 25.4191 17.0312L25.3316 17.4687L25.0753 17.4875L24.8128 17.5062L24.8253 14.175L24.8441 10.8437L25.5316 10.8125C26.3066 10.775 26.5753 10.6687 26.9628 10.275C27.6128 9.60623 27.5941 8.29998 26.9253 7.64373C26.1753 6.91248 25.0691 6.94373 24.3878 7.71873C24.0441 8.11248 23.9378 8.48123 23.9378 9.29373V9.93748H23.4691H23.0003V9.29373C23.0003 8.48123 22.8941 8.11248 22.5503 7.71873C21.8691 6.94373 20.7628 6.91248 20.0128 7.64373C19.3378 8.29998 19.3253 9.59373 19.9816 10.2687C20.3753 10.675 20.6253 10.775 21.4066 10.8125L22.0941 10.8437L22.1128 14.1687L22.1253 17.5H21.8753C21.6566 17.5 21.6253 17.4812 21.5941 17.325C21.3253 16.0187 20.8066 15.1687 19.7566 14.3187C18.2378 13.0875 17.5003 11.7812 17.3128 9.99998C17.0003 6.92498 19.0878 4.09373 22.1878 3.40623C22.8128 3.26873 24.4441 3.31873 25.0941 3.49373ZM21.7566 8.16873C22.0503 8.41873 22.1253 8.66248 22.1253 9.34373V9.93748H21.5566C21.0941 9.93748 20.9441 9.91248 20.7816 9.81248C20.2378 9.47498 20.2378 8.44373 20.7753 8.11873C21.0753 7.93748 21.5066 7.96248 21.7566 8.16873ZM26.1566 8.12498C26.7066 8.46248 26.6941 9.50623 26.1378 9.82498C25.9941 9.91248 25.8066 9.93748 25.3816 9.93748H24.8128V9.34373C24.8128 8.66248 24.8878 8.41873 25.1816 8.16873C25.4378 7.95623 25.8566 7.93748 26.1566 8.12498ZM16.3941 9.71873C16.5253 11.8687 17.4253 13.575 19.1503 14.9687C19.9066 15.5812 20.3066 16.1187 20.5566 16.8562C20.7691 17.4875 20.7628 17.5 20.2566 17.5C19.7441 17.5 19.5003 17.6437 19.5003 17.9437C19.5003 18.2687 19.6816 18.375 20.2503 18.375H20.7503V18.7312C20.7566 19.9375 21.5503 21.025 22.6628 21.35L23.0003 21.4437V22.5687C23.0003 23.7812 22.9753 23.9062 22.6316 24.2687C22.2566 24.675 22.5191 24.6562 17.7503 24.6875L13.4066 24.7187L13.1191 24.8562C12.9628 24.9375 12.3566 25.45 11.7441 26.0125C9.06283 28.5125 8.94408 28.6187 8.71908 28.6812C8.45658 28.75 8.09408 28.6687 7.89408 28.4875C7.81908 28.4187 7.52533 27.825 7.24408 27.1625C6.58158 25.6062 6.53158 25.5187 6.23158 25.2C5.81908 24.775 5.49408 24.6875 4.35033 24.6875C3.41908 24.6875 3.38158 24.6812 3.05658 24.5125C2.81283 24.3875 2.66908 24.2562 2.53158 24.0312L2.34408 23.7312V16.8812V10.0312L2.51283 9.73748C2.68783 9.44998 2.97533 9.22498 3.30033 9.12498C3.39408 9.09373 6.36908 9.06873 9.91283 9.06873L16.3566 9.06248L16.3941 9.71873ZM23.9378 14.1562V17.5H23.4691H23.0003V14.1562V10.8125H23.4691H23.9378V14.1562ZM25.2753 18.8125C25.2566 19.5312 24.8628 20.1187 24.1941 20.425C23.3191 20.8312 22.2628 20.4562 21.8441 19.6C21.6816 19.2687 21.5753 18.6625 21.6441 18.475C21.6816 18.3875 21.8878 18.375 23.4816 18.3875L25.2816 18.4062L25.2753 18.8125Z" fill="black"/>
<path d="M4.4375 11.5625C4.36875 11.6312 4.3125 11.7687 4.3125 11.875C4.3125 11.9812 4.36875 12.1187 4.4375 12.1875C4.5625 12.3125 4.64375 12.3125 9.46875 12.3125C14.2937 12.3125 14.375 12.3125 14.5 12.1875C14.5688 12.1187 14.625 11.9812 14.625 11.875C14.625 11.7687 14.5688 11.6312 14.5 11.5625C14.375 11.4375 14.2937 11.4375 9.46875 11.4375C4.64375 11.4375 4.5625 11.4375 4.4375 11.5625Z" fill="black"/>
<path d="M4.48131 14.8187C4.27506 14.975 4.25006 15.3 4.42506 15.4562C4.53131 15.5562 5.06256 15.5625 10.8001 15.5625H17.0563L17.1501 15.425C17.2876 15.2312 17.2751 14.9812 17.1188 14.8375C16.9938 14.725 16.7813 14.7187 10.8126 14.7L4.64381 14.6875L4.48131 14.8187Z" fill="black"/>
<path d="M4.45048 18.1C4.26923 18.225 4.26298 18.575 4.43798 18.75C4.56298 18.875 4.64423 18.875 10.7442 18.875C16.9005 18.875 16.9192 18.875 17.088 18.7437C17.288 18.5875 17.3067 18.3062 17.1255 18.125C17.0005 18 16.9192 18 10.7942 18C5.28173 18 4.57548 18.0125 4.45048 18.1Z" fill="black"/>
<path d="M4.47562 21.3812C4.27562 21.5375 4.25062 21.8625 4.42562 22.0187C4.53187 22.1187 5.14437 22.125 11.9256 22.125C19.2319 22.125 19.3131 22.125 19.4381 22C19.6194 21.8187 19.6006 21.5375 19.4006 21.3812C19.2319 21.25 19.2256 21.25 11.9381 21.25C4.65062 21.25 4.64437 21.25 4.47562 21.3812Z" fill="black"/>
</svg>
